<svg width="996" height="259" viewBox="0 0 996 259" fill="none" xmlns="http://www.w3.org/2000/svg">
<path d="M98.5917 202.986C98.5917 210.931 98.5917 218.921 98.5917 227.218C97.8026 226.823 97.145 226.559 96.5751 226.208C71.982 211.985 47.4327 197.806 22.8396 183.583C15.8693 179.544 8.94293 175.505 1.97268 171.555C0.745219 170.852 0.263 170.106 0.263 168.657C0.306839 132.09 0.306839 95.4788 0.263 58.9115C0.263 57.4629 0.745219 56.7166 1.97268 56.0142C33.6237 37.7526 65.2748 19.447 96.9259 1.09747C97.978 0.482894 98.7671 0.438995 99.863 1.09747C129.147 18.0861 158.474 35.0309 187.802 51.9756C190.257 53.3804 192.712 54.829 195.211 56.2337C196.044 56.7166 196.526 57.1995 196.526 58.2531C196.482 68.218 196.482 78.139 196.482 88.1039C196.482 88.3234 196.394 88.499 196.307 88.8502C189.424 88.8502 182.542 88.8502 175.396 88.8502C175.396 87.4893 175.396 86.2163 175.396 84.8993C175.396 80.3778 175.352 75.8124 175.44 71.2909C175.484 69.7983 175.001 68.9642 173.686 68.218C157.159 58.7359 140.676 49.1661 124.193 39.6402C116.171 34.987 108.148 30.3776 100.126 25.6805C98.8986 24.9342 98.0218 24.9342 96.7505 25.6805C72.2012 39.9475 47.6081 54.1266 23.0149 68.3058C21.8752 68.9643 21.3929 69.7105 21.3929 71.0275C21.4368 99.4736 21.4368 127.964 21.3929 156.41C21.3929 157.902 21.9628 158.561 23.1465 159.263C48.1341 173.662 73.078 188.104 98.0218 202.503C98.1972 202.678 98.3725 202.854 98.5917 202.986Z" fill="#E59725"/>
<path d="M763.045 76.866C757.565 76.866 752.085 76.866 746.605 76.866C743.581 76.866 742.485 77.9634 742.485 80.9046C742.485 88.06 742.485 95.2593 742.485 102.415C742.485 103.6 742.572 104.785 742.792 105.883C743.844 110.931 747.175 113.609 752.085 114.487C752.743 114.618 753.356 114.706 754.014 114.882C756.294 115.453 756.907 116.199 756.688 118.13C756.513 119.711 755.636 120.325 753.225 120.237C750.682 120.15 748.14 119.93 745.597 119.667C738.32 118.921 731.043 119.228 723.766 119.974C722.407 120.106 721.004 120.237 719.601 120.237C718.33 120.281 717.234 119.798 716.927 118.438C716.62 117.165 717.146 116.111 718.242 115.453C719.031 114.97 719.864 114.487 720.741 114.136C725.037 112.248 726.878 108.78 727.229 104.302C727.273 103.512 727.273 102.678 727.273 101.888C727.273 85.2066 727.273 68.5253 727.273 51.8439C727.273 50.8782 727.229 49.9563 727.229 48.9905C726.966 42.7131 724.073 39.5085 717.892 38.5866C716.883 38.4549 715.875 38.1915 714.954 37.7965C713.902 37.3575 713.376 36.5234 713.552 35.3382C713.727 34.1529 714.384 33.3627 715.524 33.3188C717.541 33.2749 719.601 33.2749 721.618 33.5383C729.333 34.4163 737.049 34.3285 744.764 33.4944C746.299 33.3188 747.789 33.1432 749.323 32.9676C750.551 32.836 751.691 33.0554 752.173 34.4163C752.655 35.7771 752.129 36.9185 750.682 37.6209C749.762 38.0599 748.797 38.411 747.877 38.85C744.501 40.3865 742.616 43.0204 742.529 46.7078C742.397 53.3804 742.397 60.009 742.397 66.6815C742.397 68.6131 743.405 69.5788 745.334 69.7983C745.992 69.8861 746.649 69.8861 747.307 69.8861C757.74 69.8861 768.218 69.8861 778.651 69.8861C779.309 69.8861 779.966 69.8861 780.624 69.7983C782.509 69.5788 783.736 68.5692 783.692 66.7254C783.649 60.009 783.649 53.2926 783.21 46.5761C782.903 42.1424 779.396 39.289 774.355 38.5427C773.347 38.411 772.338 38.1476 771.418 37.7965C770.278 37.4014 769.533 36.5234 769.796 35.2504C770.015 34.0651 770.804 33.231 772.075 33.231C773.829 33.1871 775.582 33.1871 777.336 33.4066C786.542 34.548 795.66 34.109 804.822 33.0554C805.261 33.0115 805.699 32.8799 806.137 32.8799C807.321 32.9238 808.242 33.4505 808.549 34.7236C808.812 35.8649 808.329 36.7429 807.409 37.3136C806.795 37.7087 806.094 37.9721 805.436 38.2354C800.965 39.9475 798.817 43.2838 798.685 47.9809C798.641 49.1661 798.597 50.3075 798.597 51.4927C798.597 68.0424 798.554 84.5482 798.641 101.098C798.641 103.381 798.992 105.795 799.649 107.99C800.614 111.194 802.937 113.258 806.269 114.092C807.409 114.355 808.549 114.618 809.645 115.057C811.31 115.716 811.968 116.901 811.617 118.262C811.267 119.667 810.521 120.237 808.636 120.194C806.4 120.106 804.121 119.886 801.885 119.667C794.52 118.833 787.156 119.228 779.835 119.974C778.607 120.106 777.38 120.15 776.108 120.194C774.837 120.237 773.785 119.842 773.347 118.525C772.952 117.34 773.566 116.023 774.925 115.233C775.67 114.794 776.459 114.355 777.248 114.004C781.676 112.072 783.605 108.429 783.736 103.907C783.955 96.0934 783.868 88.2356 783.824 80.4217C783.824 77.8756 782.465 76.7782 779.659 76.7782C774.136 76.8221 768.568 76.866 763.045 76.866Z" fill="#E59725"/>
<path d="M394.323 76.8659C388.843 76.8659 383.364 76.8659 377.884 76.8659C374.508 76.8659 373.456 77.9195 373.456 81.3436C373.456 88.06 373.456 94.8203 373.456 101.537C373.456 102.546 373.456 103.6 373.632 104.61C374.552 110.536 377.445 113.477 383.364 114.575C384.153 114.706 384.942 114.838 385.731 115.057C387.353 115.54 388.142 116.682 387.923 118.13C387.704 119.535 386.827 120.325 385.073 120.281C382.18 120.194 379.243 119.755 376.349 119.711C370.651 119.623 364.995 119.623 359.296 119.711C356.622 119.755 353.904 120.15 351.23 120.325C349.959 120.413 348.688 120.281 348.162 118.833C347.636 117.428 348.293 116.155 349.871 115.233C350.704 114.75 351.493 114.267 352.37 113.916C355.789 112.467 357.455 109.658 358.113 106.19C358.42 104.566 358.551 102.854 358.551 101.186C358.595 85.1627 358.595 69.1398 358.551 53.117C358.551 51.0976 358.376 49.0344 358.157 47.0151C357.587 42.4497 354.518 39.5524 349.521 38.7622C348.644 38.6305 347.767 38.5427 346.934 38.2793C345.093 37.7087 344.348 36.699 344.611 35.3381C344.874 34.109 346.233 33.1432 347.811 33.231C349.345 33.2749 350.88 33.4505 352.37 33.6261C360.173 34.548 367.933 34.4602 375.736 33.6261C377.27 33.4505 378.761 33.2749 380.295 33.1432C382.048 32.9676 383.013 33.5383 383.364 34.8992C383.67 36.1283 383.144 37.138 381.698 37.8403C381.04 38.1476 380.383 38.411 379.681 38.6744C375.604 40.2548 373.588 43.3276 373.5 47.6297C373.368 53.9071 373.412 60.2285 373.412 66.5059C373.412 68.7887 374.464 69.8422 376.744 69.9739C378.366 70.0617 379.944 70.0178 381.566 70.0178C390.86 70.0178 400.11 70.0178 409.403 70.0178C410.28 70.0178 411.157 70.0178 412.034 69.8861C413.656 69.6666 414.752 68.7887 414.752 67.2083C414.752 60.5358 414.971 53.8632 414.445 47.2785C414.05 42.2741 410.894 39.6841 405.852 38.7622C405.063 38.6305 404.274 38.4988 403.485 38.3232C401.513 37.7965 400.767 36.8307 401.074 35.2942C401.293 34.0651 402.608 33.1432 404.274 33.231C405.896 33.3188 407.474 33.4505 409.053 33.6261C416.68 34.548 424.352 34.4163 431.98 33.6261C433.558 33.4505 435.18 33.2749 436.758 33.0993C438.073 32.9676 439.082 33.3627 439.564 34.6358C440.046 35.9088 439.52 36.9624 438.161 37.7087C437.24 38.1915 436.276 38.4988 435.355 38.9378C432.111 40.562 430.139 43.1081 429.963 46.8395C429.832 49.3856 429.657 51.9317 429.657 54.4778C429.613 70.1495 429.613 85.7773 429.657 101.449C429.657 103.468 429.963 105.532 430.489 107.507C431.41 111.019 433.733 113.302 437.284 114.267C438.556 114.618 439.827 114.926 441.054 115.409C442.545 116.067 443.071 117.165 442.676 118.613C442.326 119.974 441.274 120.457 440.002 120.369C437.81 120.237 435.618 120.106 433.47 119.886C425.755 119.008 418.039 119.359 410.324 120.237C409.184 120.369 408.001 120.413 406.817 120.369C405.765 120.325 404.8 119.974 404.45 118.789C404.143 117.604 404.406 116.55 405.414 115.848C406.291 115.233 407.255 114.662 408.264 114.223C412.516 112.292 414.62 108.868 414.708 104.346C414.883 96.3568 414.839 88.4112 414.795 80.4217C414.795 78.0951 413.48 76.9537 410.938 76.9537C405.414 76.822 399.89 76.8659 394.323 76.8659Z" fill="#E59725"/>
<path d="M595.671 75.8124C599.529 79.9827 601.458 85.1627 604.132 89.9037C606.718 94.4692 609.129 99.1663 611.628 103.776C612.417 105.268 613.382 106.629 614.302 108.078C616.187 111.107 618.905 112.467 622.456 111.897C623.508 111.721 624.736 111.326 625.306 112.731C625.832 114.092 625.174 115.189 624.21 116.023C621.448 118.35 618.16 119.447 614.609 119.842C608.384 120.589 603.956 117.647 600.362 112.994C596.548 108.034 593.742 102.503 591.024 96.9275C588.964 92.7132 586.772 88.5868 584.712 84.4165C583.046 81.1241 580.547 79.1926 576.777 79.2365C574.804 79.2365 572.875 79.2365 570.903 79.412C569.5 79.5437 568.711 80.4656 568.579 81.9143C568.535 82.3532 568.448 82.7922 568.448 83.2312C568.491 90.1671 568.491 97.147 568.579 104.083C568.579 105.312 568.842 106.541 569.193 107.726C570.157 111.063 572.262 113.302 575.681 114.223C576.865 114.531 578.048 114.97 579.144 115.496C580.372 116.067 580.635 117.252 580.328 118.482C580.065 119.755 579.1 120.325 577.917 120.237C575.593 120.106 573.27 119.755 570.946 119.711C565.204 119.623 559.461 119.623 553.674 119.711C551.132 119.755 548.589 120.106 546.046 120.281C544.775 120.369 543.504 120.15 543.022 118.657C542.583 117.384 543.241 116.111 544.731 115.233C545.564 114.75 546.397 114.311 547.274 113.916C551.263 112.116 552.885 108.824 553.28 104.697C553.367 103.688 553.411 102.634 553.411 101.625C553.411 85.2505 553.411 68.8326 553.411 52.4585C553.411 51.0098 553.367 49.5173 553.28 48.0687C552.973 42.757 550.343 39.728 545.17 38.6305C544.381 38.4549 543.591 38.3232 542.802 38.1037C541.443 37.7087 540.654 36.8307 540.742 35.3821C540.83 34.1529 541.838 33.3188 543.416 33.3188C544.863 33.2749 546.309 33.4944 547.8 33.5383C552.841 33.7578 557.839 34.1529 562.88 34.0651C568.579 33.9334 574.234 33.231 579.889 33.0115C586.114 32.7482 592.296 33.3188 598.126 35.7771C608.165 39.9914 611.76 48.771 610.927 58.4287C610.269 66.1987 605.842 71.247 598.959 74.4076C598.433 74.671 597.907 74.8905 597.337 75.11C596.811 75.3295 596.285 75.549 595.671 75.8124ZM568.886 57.1556C568.798 57.1556 568.667 57.1556 568.579 57.1556C568.579 59.7017 568.535 62.2917 568.579 64.8378C568.623 66.6376 568.755 68.4814 568.93 70.2812C569.105 71.9932 570.245 72.9151 571.823 73.1346C577.303 73.9248 582.739 73.8809 588.043 72.2127C592.164 70.9397 594.75 68.0424 595.364 63.7404C595.715 61.3259 595.934 58.7799 595.759 56.3215C594.926 44.908 587.517 38.1476 575.725 38.1915C571.122 38.2354 569.324 39.7719 568.93 44.4251C568.623 48.6832 568.886 52.9414 568.886 57.1556Z" fill="#E59725"/>
<path d="M175.396 158.297C175.396 148.684 175.396 139.07 175.396 129.324C182.41 129.324 189.249 129.324 196.263 129.324C196.307 129.983 196.394 130.597 196.394 131.212C196.394 143.723 196.394 156.234 196.438 168.745C196.438 170.062 196.087 170.852 194.904 171.511C169.609 186.085 144.359 200.703 119.108 215.277C118.363 215.716 117.617 216.067 116.697 216.594C116.609 215.98 116.565 215.628 116.565 215.277C116.565 208.122 116.609 200.923 116.521 193.767C116.521 192.318 117.311 191.879 118.275 191.309C129.98 184.548 141.641 177.788 153.345 171.072C160.622 166.857 167.943 162.599 175.396 158.297Z" fill="#606061"/>
<path d="M456.398 65.0134C456.398 59.1749 456.485 53.2926 456.398 47.4541C456.31 42.1863 454.644 40.1231 449.559 38.7183C448.288 38.3671 446.973 38.1915 445.745 37.8404C444.123 37.4014 443.509 36.6112 443.729 35.2504C443.948 33.8017 445 33.3188 446.271 33.3627C449.033 33.4944 451.795 33.67 454.557 33.9334C460.475 34.5041 466.349 34.1968 472.223 33.5822C473.977 33.4066 475.686 33.1871 477.44 32.9677C477.791 32.9238 478.185 32.8799 478.536 32.9677C479.763 33.1871 481.122 33.3188 481.298 34.9431C481.429 36.4356 480.377 37.138 479.15 37.6209C478.799 37.7526 478.448 37.8404 478.098 37.9721C473.758 39.3329 472.048 41.44 471.741 46.0493C471.522 49.6051 471.303 53.2048 471.303 56.7605C471.259 66.9888 471.215 77.261 471.39 87.4893C471.434 90.6939 471.829 93.9424 472.574 97.0153C475.336 108.122 485.419 114.97 497.737 113.521C503.085 112.906 507.907 111.063 511.941 107.375C516.368 103.337 518.692 98.1566 519.393 92.406C520.051 87.1382 520.314 81.7826 520.445 76.4709C520.577 68.3497 520.489 60.2285 520.357 52.1073C520.314 49.7368 519.963 47.3224 519.481 44.9519C518.867 42.0107 516.938 40.0792 514.001 39.289C512.467 38.8939 510.888 38.5427 509.354 38.1477C508.521 37.9282 507.557 37.7526 506.943 37.2258C506.329 36.699 505.716 35.7332 505.672 34.9431C505.628 33.8895 506.592 33.3188 507.644 33.3188C509.486 33.3188 511.283 33.4066 513.124 33.4944C516.894 33.7139 520.664 34.109 524.478 34.109C527.065 34.109 529.695 33.4944 532.281 33.1871C532.72 33.1432 533.158 33.0993 533.553 33.1432C534.561 33.231 535.657 33.5383 535.613 34.6797C535.569 35.5138 534.999 36.3917 534.473 37.0941C534.166 37.4892 533.465 37.7087 532.939 37.8404C529.125 38.7183 527.591 41.3522 527.415 44.9958C527.24 48.3321 527.021 51.7122 526.977 55.0485C526.889 63.7404 527.065 72.4761 526.845 81.168C526.626 88.938 525.355 96.5763 521.892 103.644C517.026 113.565 508.828 118.921 498.175 120.589C491.95 121.554 485.682 121.511 479.457 120.281C468.629 118.086 462.009 111.458 459.028 100.966C457.318 94.9521 456.705 88.7624 456.573 82.5727C456.442 76.7343 456.529 70.8519 456.529 65.0134C456.485 65.0134 456.442 65.0134 456.398 65.0134Z" fill="#E59725"/>
<path d="M260.047 79.1925C260.398 67.2083 263.773 56.4093 271.314 47.059C278.766 37.8403 288.41 32.7042 300.29 31.9141C309.496 31.2995 318.045 33.5822 326.286 37.4892C326.769 37.7087 327.207 37.9281 327.645 38.1476C330.802 39.6402 330.933 39.5963 332.95 36.7868C333.388 36.1722 334.44 35.4259 334.966 35.6015C335.668 35.821 336.325 36.7868 336.632 37.577C336.983 38.3671 336.895 39.289 336.983 40.167C337.553 46.7078 338.079 53.2487 338.649 59.8334C338.649 60.0529 338.736 60.2724 338.736 60.4919C338.868 61.6332 338.868 62.7746 337.64 63.3014C336.325 63.8281 335.536 62.9063 334.966 61.9844C333.914 60.3163 333.037 58.5603 332.073 56.8483C327.602 48.8588 321.464 42.757 312.96 39.2451C308.225 37.2697 303.315 36.4356 298.186 37.0941C291.479 37.972 286.438 41.5717 282.492 46.9273C278.722 52.0634 276.749 57.9019 275.873 64.1354C274.514 74.232 275.785 83.9775 280.169 93.1961C282.755 98.5956 286.175 103.424 290.997 107.068C299.414 113.477 308.707 114.004 318.352 110.448C324.884 108.034 330.276 104.039 334.703 98.6834C335.361 97.8932 336.106 97.147 336.939 96.6641C337.465 96.3568 338.517 96.2251 338.912 96.5324C339.394 96.9275 339.745 97.9371 339.657 98.5956C339.526 99.5614 339.087 100.571 338.517 101.405C331.679 111.414 322.648 118.306 310.636 120.72C301.299 122.608 292.005 122.301 283.194 118.262C271.094 112.731 264.08 103.029 261.362 90.1671C260.617 86.4797 260.486 82.8361 260.047 79.1925Z" fill="#E59725"/>
<path d="M644.287 70.2812C644.375 82.7483 647.444 92.9766 654.589 101.756C663.05 112.116 674.93 115.189 687.424 110.316C693.561 107.902 698.91 104.302 703.118 99.1224C703.907 98.1566 704.784 97.2786 705.836 96.6202C706.362 96.269 707.502 96.2251 707.984 96.5324C708.466 96.8836 708.729 97.981 708.554 98.6395C708.291 99.737 707.809 100.878 707.151 101.8C699.567 112.467 689.616 119.403 676.421 121.159C667.478 122.345 658.754 121.642 650.644 117.472C640.079 112.028 633.416 103.381 630.742 91.8792C627.015 75.9441 629.733 61.0625 639.641 47.893C647.005 38.1037 656.957 32.7481 669.275 31.9141C678.437 31.2995 686.898 33.6261 695.052 37.4014C695.972 37.8403 696.893 38.3232 697.814 38.7183C699.699 39.5085 700.4 39.289 701.408 37.5769C701.452 37.5331 701.452 37.4453 701.496 37.4014C702.066 36.4795 702.504 35.2942 703.907 35.5576C705.354 35.821 705.617 37.0941 705.748 38.2354C706.406 45.5225 706.976 52.7658 707.546 60.0529C707.633 61.1942 708.116 62.7307 706.537 63.3014C704.915 63.8281 704.17 62.4673 703.513 61.3698C702.329 59.4383 701.365 57.3751 700.181 55.4436C695.052 46.8834 687.994 40.7376 678.306 37.972C668.793 35.2942 660.201 36.8746 653.318 44.469C648.408 49.8685 645.866 56.4532 644.857 63.6086C644.507 66.1986 644.419 68.8325 644.287 70.2812Z" fill="#E59725"/>
<path d="M903.195 120.194C897.277 119.886 890.964 119.359 884.608 119.359C878.207 119.359 871.763 119.842 865.363 120.106C864.267 120.15 863.171 120.281 862.075 120.237C861.023 120.194 859.971 119.93 859.664 118.745C859.313 117.428 859.576 116.243 860.803 115.496C861.417 115.101 862.075 114.706 862.732 114.487C868.037 112.555 869.834 108.385 870.141 103.205C870.185 102.678 870.185 102.195 870.185 101.668C870.185 85.4261 870.185 69.1837 870.185 52.9414C870.185 50.922 870.009 48.8588 869.703 46.8395C869.045 42.318 865.933 39.5085 860.935 38.6744C859.883 38.4988 858.787 38.2354 857.779 37.8842C856.726 37.5331 856.069 36.7429 856.2 35.5576C856.332 34.3285 857.077 33.4505 858.305 33.4066C860.19 33.3627 862.075 33.4066 863.96 33.5822C871.763 34.4602 879.522 34.4163 887.325 33.5822C888.904 33.4066 890.526 33.1871 892.104 33.0554C893.331 32.9676 894.427 33.231 894.822 34.6797C895.216 36.0844 894.822 36.9624 893.419 37.7086C892.893 37.972 892.367 38.1915 891.797 38.411C887.457 40.1231 885.177 43.2398 885.09 47.937C885.046 49.9124 884.958 51.8878 884.958 53.8632C884.958 69.4471 884.914 85.031 884.958 100.615C884.958 103.249 885.134 105.883 885.528 108.473C885.966 111.414 887.106 112.38 890.131 112.906C896.049 113.96 901.748 112.95 907.359 111.107C913.234 109.175 918.012 105.795 921.168 100.264C921.651 99.4297 922.221 98.6834 922.922 98.0249C923.93 97.0592 924.982 97.3226 925.508 98.5956C925.728 99.1663 925.903 99.8687 925.815 100.527C925.07 106.058 923.36 111.238 919.459 115.365C916.259 118.745 912.05 119.886 907.622 120.281C906.263 120.281 904.905 120.194 903.195 120.194Z" fill="#E59725"/>
<path d="M973.292 120.194C966.935 119.886 960.623 119.359 954.266 119.316C947.997 119.272 941.728 119.798 935.46 120.062C934.276 120.106 933.136 120.237 931.953 120.237C930.769 120.237 929.761 119.755 929.41 118.525C929.103 117.296 929.498 116.199 930.594 115.496C931.383 115.014 932.216 114.531 933.092 114.18C937.652 112.336 939.493 108.692 939.843 104.039C939.887 103.293 939.887 102.59 939.887 101.844C939.887 85.2505 939.887 68.6131 939.887 52.0195C939.887 50.4831 939.887 48.9466 939.624 47.4102C938.704 42.0107 935.942 39.3768 930.55 38.5427C929.673 38.411 928.796 38.2793 928.007 37.972C926.473 37.4014 925.815 36.4356 926.034 35.2065C926.254 33.9334 927.393 33.0115 928.928 33.0115C930.55 33.0554 932.128 33.1871 933.706 33.4066C941.553 34.3285 949.444 34.2407 957.291 33.4066C958.825 33.231 960.316 33.0115 961.85 32.8798C963.122 32.792 964.174 33.1432 964.656 34.4602C965.094 35.6893 964.568 36.7868 963.209 37.5331C962.815 37.7526 962.42 37.9281 962.026 38.0598C957.247 39.728 954.924 43.152 954.792 48.1565C954.792 49.1222 954.748 50.0441 954.748 51.0098C954.748 68.218 954.748 85.3822 954.748 102.59C954.748 104.39 954.924 106.234 955.187 108.034C955.625 111.019 956.896 112.204 959.834 112.731C965.533 113.697 971.012 112.863 976.404 111.107C980.701 109.746 984.69 107.726 987.715 104.302C989.074 102.766 990.082 100.966 991.309 99.3419C992.011 98.3761 992.624 96.9275 994.115 97.3665C995.737 97.8493 995.649 99.3858 995.43 100.703C994.466 106.673 992.668 112.248 987.846 116.287C984.514 119.096 980.438 119.886 976.185 120.106C975.308 120.281 974.3 120.237 973.292 120.194C973.292 120.237 973.292 120.237 973.292 120.194Z" fill="#E59725"/>
<path d="M851.466 120.15C846.951 119.886 842.435 119.359 837.92 119.359C832.835 119.359 827.706 119.798 822.621 120.018C821.218 120.106 819.859 120.237 818.456 120.194C817.404 120.15 816.439 119.711 816.22 118.482C816.045 117.34 816.176 116.243 817.316 115.628C818.544 114.97 819.727 114.267 821.042 113.741C824.418 112.467 825.733 109.702 826.303 106.497C826.61 104.654 826.785 102.722 826.785 100.834C826.785 84.153 826.785 67.4717 826.741 50.7903C826.741 49.1222 826.61 47.4102 826.303 45.7859C825.777 42.9325 824.286 40.7376 821.437 39.8158C819.508 39.2012 817.492 38.7622 815.519 38.3232C813.371 37.7964 812.582 36.9624 812.801 35.3381C813.02 33.8456 814.379 32.9237 816.308 33.1871C823.717 34.2407 831.169 33.9773 838.621 33.7578C841.909 33.67 845.153 33.231 848.441 33.0554C849.318 33.0115 850.37 33.2749 851.071 33.7578C852.167 34.548 851.948 36.3039 850.721 37.138C850.063 37.5769 849.318 37.972 848.529 38.1476C843.794 39.2012 842.128 42.5814 841.778 46.9712C841.646 48.6393 841.602 50.3514 841.602 52.0195C841.602 68.3497 841.559 84.6359 841.602 100.966C841.602 102.985 841.778 105.049 842.216 107.068C843.093 111.019 845.548 113.477 849.581 114.179C851.028 114.443 852.43 114.706 853.833 115.101C855.587 115.584 856.288 116.638 856.069 118.086C855.85 119.447 854.929 120.194 853.22 120.325C852.65 120.369 852.036 120.325 851.466 120.325C851.466 120.194 851.466 120.194 851.466 120.15Z" fill="#E59725"/>
<path d="M381.172 187.709C378.804 187.709 376.481 187.797 374.201 187.621C373.631 187.577 372.974 186.743 372.579 186.085C368.371 179.325 364.206 172.564 359.998 165.804C359.647 165.277 359.296 164.75 358.551 164.311C358.551 171.994 358.551 179.676 358.551 187.534C356.009 187.534 353.729 187.534 351.318 187.534C351.318 174.979 351.318 162.468 351.318 149.693C353.554 149.693 355.746 149.605 357.894 149.737C358.42 149.781 359.077 150.44 359.428 151.01C363.768 158.034 368.064 165.058 372.404 172.125C372.799 172.784 373.237 173.442 373.982 174.013C373.982 166.023 373.982 158.034 373.982 149.869C376.437 149.869 378.761 149.869 381.215 149.869C381.172 162.336 381.172 174.847 381.172 187.709Z" fill="#606061"/>
<path d="M440.265 175.242C442.72 175.023 445.044 174.803 447.455 174.584C447.762 175.462 447.981 176.208 448.288 176.954C450.216 181.915 457.888 183.583 461.746 179.895C464.025 177.7 463.543 174.32 460.562 173.135C458.414 172.257 456.091 171.818 453.855 171.159C451.839 170.545 449.778 169.974 447.849 169.184C443.685 167.384 441.274 163.697 441.493 159.351C441.712 154.873 444.079 151.756 448.244 150.264C453.285 148.508 458.458 148.508 463.412 150.571C467.62 152.327 469.461 155.795 469.9 160.492C467.357 160.668 464.858 160.843 462.403 161.019C462.228 160.668 462.097 160.492 462.053 160.317C461.351 157.244 459.379 155.619 456.354 155.576C454.6 155.532 452.759 155.883 451.049 156.366C449.866 156.717 448.901 157.639 448.945 159.131C448.945 160.58 449.734 161.502 450.962 161.941C452.715 162.599 454.513 163.17 456.354 163.741C458.59 164.443 460.869 164.926 463.061 165.716C468.848 167.823 471.171 171.379 470.908 177.393C470.733 182.266 467.445 186.173 462.14 187.577C457.757 188.719 453.329 188.719 448.989 187.358C443.816 185.778 440.309 180.905 440.265 175.242Z" fill="#606061"/>
<path d="M943.877 187.402C943.877 174.847 943.877 162.424 943.877 149.869C953.083 149.869 962.332 149.869 971.714 149.869C971.714 151.888 971.714 153.951 971.714 156.234C965.006 156.234 958.343 156.234 951.548 156.234C951.548 159.044 951.548 161.634 951.548 164.531C957.861 164.531 964.086 164.531 970.399 164.531C970.399 166.77 970.399 168.701 970.399 170.852C964.13 170.852 957.948 170.852 951.592 170.852C951.592 174.408 951.592 177.7 951.592 181.212C958.562 181.212 965.357 181.212 972.327 181.212C972.327 183.363 972.327 185.295 972.327 187.402C962.858 187.402 953.477 187.402 943.877 187.402Z" fill="#606061"/>
<path d="M767.429 149.781C770.322 149.781 772.777 149.781 775.451 149.781C775.451 150.659 775.451 151.449 775.451 152.239C775.451 159.702 775.495 167.165 775.495 174.627C775.495 177.393 776.415 179.72 779.089 180.905C782.027 182.222 785.095 182.266 787.857 180.378C789.567 179.237 790.049 177.349 790.049 175.374C790.093 167.692 790.137 160.009 790.18 152.327C790.18 151.537 790.18 150.747 790.18 149.825C792.811 149.825 795.222 149.825 797.677 149.825C797.677 158.956 798.115 167.999 797.545 176.998C797.063 184.548 792.285 188.236 784.613 188.28C782.29 188.28 779.922 188.192 777.643 187.841C772.163 186.963 768.349 182.968 768.13 177.393C767.692 168.262 767.648 159.131 767.429 149.781Z" fill="#606061"/>
<path d="M856.025 149.781C866.02 149.781 875.884 149.781 885.879 149.781C885.879 151.888 885.879 153.907 885.879 156.146C882.328 156.146 878.777 156.146 875.007 156.146C875.007 166.682 875.007 176.998 875.007 187.534C872.333 187.534 869.878 187.534 867.204 187.534C867.204 177.217 867.204 166.857 867.204 156.322C863.39 156.322 859.751 156.322 856.025 156.322C856.025 154.039 856.025 151.976 856.025 149.781Z" fill="#606061"/>
<path d="M196.351 103.556C196.351 110.492 196.351 117.208 196.351 124.057C189.424 124.057 182.542 124.057 175.527 124.057C175.527 117.296 175.527 110.448 175.527 103.556C182.454 103.556 189.293 103.556 196.351 103.556Z" fill="#606061"/>
<path d="M546.309 187.446C543.635 187.446 541.268 187.446 538.682 187.446C538.682 177.042 538.682 166.77 538.682 156.278C534.824 156.278 531.229 156.278 527.503 156.278C527.503 154.039 527.503 152.02 527.503 149.825C537.41 149.825 547.362 149.825 557.401 149.825C557.401 151.888 557.401 153.907 557.401 156.102C553.762 156.102 550.167 156.102 546.266 156.102C546.309 166.682 546.309 176.998 546.309 187.446Z" fill="#606061"/>
<path d="M680.103 149.781C690.142 149.781 699.962 149.781 709.957 149.781C709.957 151.888 709.957 153.864 709.957 156.19C706.362 156.19 702.68 156.19 698.822 156.19C698.822 166.77 698.822 177.042 698.822 187.446C696.236 187.446 693.868 187.446 691.282 187.446C691.282 177.086 691.282 166.857 691.282 156.366C687.468 156.366 683.829 156.366 680.147 156.366C680.103 153.995 680.103 151.844 680.103 149.781Z" fill="#606061"/>
<path d="M283.369 149.737C285.999 149.737 288.367 149.737 290.909 149.737C290.909 162.336 290.909 174.847 290.909 187.534C288.454 187.534 285.955 187.534 283.369 187.534C283.369 174.891 283.369 162.424 283.369 149.737Z" fill="#606061"/>
<path d="M622.368 187.446C619.957 187.446 617.634 187.446 615.179 187.446C615.179 174.935 615.179 162.468 615.179 149.825C617.459 149.825 619.826 149.825 622.368 149.825C622.368 162.336 622.368 174.847 622.368 187.446Z" fill="#606061"/>
<path d="M630.172 241.309C628.725 241.309 627.41 241.309 625.963 241.309C625.963 235.997 625.963 230.73 625.963 225.286C624.56 225.198 623.289 225.154 621.974 225.111C621.842 224.233 621.755 223.486 621.623 222.74C621.536 222.74 621.404 222.696 621.316 222.696C618.818 228.886 616.363 235.119 613.864 241.353C612.373 241.353 610.927 241.353 609.217 241.353C606.718 234.988 604.132 228.491 601.545 221.862C603.167 221.862 604.658 221.862 606.324 221.862C608.033 226.603 609.787 231.344 611.716 236.612C613.645 231.388 615.354 226.647 617.108 221.862C621.492 221.862 625.788 221.862 630.215 221.862C630.172 228.271 630.172 234.724 630.172 241.309Z" fill="#606061"/>
<path d="M334.791 241.133C336.808 243.241 338.605 242.011 340.665 240.958C341.147 241.792 341.63 242.67 342.068 243.504C338.956 246.84 334.09 246.665 331.328 243.109C330.67 242.275 330.056 241.66 328.917 241.529C323.218 240.826 318.834 235.997 320.193 229.193C321.289 223.618 327.426 220.282 333.388 221.774C337.334 222.74 340.402 225.945 341.016 229.676C341.717 234.022 340.008 237.841 336.281 240.168C335.799 240.475 335.317 240.782 334.791 241.133ZM336.632 231.476C336.588 228.14 333.739 225.286 330.495 225.33C327.207 225.374 324.445 228.227 324.445 231.564C324.445 234.988 327.426 237.929 330.714 237.841C334.002 237.709 336.676 234.812 336.632 231.476Z" fill="#606061"/>
<path d="M535.482 241.265C535.262 241.309 535.175 241.353 535.131 241.353C532.676 241.836 530.922 241.002 529.476 238.851C527.328 235.646 524.873 232.661 522.549 229.588C522.374 229.632 522.199 229.632 522.023 229.676C522.023 231.564 522.023 233.451 522.023 235.339C522.023 237.226 522.023 239.114 522.023 241.221C520.62 241.221 519.305 241.221 517.859 241.221C517.859 234.812 517.859 228.403 517.859 221.994C521.059 221.16 521.497 221.335 523.338 223.75C525.881 227.13 528.38 230.51 531.273 233.759C531.273 229.808 531.273 225.857 531.273 221.774C532.764 221.774 534.035 221.774 535.482 221.774C535.482 228.271 535.482 234.724 535.482 241.265Z" fill="#606061"/>
<path d="M813.59 231.388C813.634 225.681 818.193 221.423 824.155 221.423C830.336 221.423 834.808 225.857 834.72 231.827C834.632 237.446 830.029 241.748 824.067 241.704C818.018 241.66 813.546 237.226 813.59 231.388ZM830.248 231.564C830.292 228.227 827.487 225.33 824.243 225.286C820.955 225.242 818.105 228.052 818.061 231.388C818.018 234.812 820.867 237.797 824.199 237.753C827.487 237.797 830.205 234.944 830.248 231.564Z" fill="#606061"/>
<path d="M770.716 235.953C770.716 237.665 770.716 239.377 770.716 241.265C769.226 241.265 767.867 241.265 766.42 241.265C766.42 234.812 766.42 228.359 766.42 221.774C769.883 221.774 773.303 221.599 776.678 221.818C779.528 222.038 781.807 223.442 782.728 226.427C783.605 229.413 782.64 232.354 780.098 234.417C779.879 234.593 779.659 234.812 779.396 235.032C780.711 237.095 781.939 239.114 783.386 241.397C781.807 241.397 780.536 241.441 779.221 241.353C778.783 241.309 778.3 241.002 778.037 240.651C777.555 240.036 777.204 239.29 776.81 238.587C775.013 235.295 775.013 235.251 770.716 235.953ZM770.804 225.198C770.804 227.657 770.804 229.852 770.804 232.222C772.382 232.222 773.829 232.31 775.276 232.222C777.643 232.046 778.739 230.817 778.695 228.535C778.651 226.471 777.511 225.33 775.188 225.198C773.785 225.111 772.426 225.198 770.804 225.198Z" fill="#606061"/>
<path d="M596.548 234.988C597.907 237.139 599.178 239.158 600.493 241.265C600.143 241.353 600.011 241.441 599.88 241.441C595.627 241.616 595.627 241.616 593.611 237.797C593.26 237.139 592.909 236.524 592.515 235.822C591.068 235.822 589.621 235.822 587.956 235.822C587.956 237.622 587.956 239.421 587.956 241.309C586.377 241.309 585.062 241.309 583.616 241.309C583.616 234.812 583.616 228.403 583.616 221.994C587.342 221.994 591.112 221.774 594.838 222.082C597.512 222.301 599.441 224.013 599.967 226.735C600.493 229.588 600.143 232.31 597.556 234.197C597.293 234.417 596.986 234.636 596.548 234.988ZM587.956 232.134C589.797 232.134 591.419 232.266 592.997 232.09C595.014 231.871 595.89 230.642 595.89 228.622C595.89 226.691 595.057 225.55 593.128 225.286C591.463 225.067 589.709 225.242 587.956 225.242C587.956 227.657 587.956 229.808 587.956 232.134Z" fill="#606061"/>
<path d="M668.092 231.432C668.135 230.861 668.135 230.247 668.179 229.676C668.749 223.662 673.133 220.457 679.007 221.686C681.813 222.301 683.698 223.969 684.662 226.647C685.802 229.852 685.758 233.1 684.618 236.305C683.435 239.641 680.761 241.397 677.035 241.441C673.089 241.485 670.283 239.86 669.056 236.568C668.442 234.944 668.267 233.188 667.872 231.476C667.96 231.432 668.004 231.432 668.092 231.432ZM680.98 231.52C680.761 230.247 680.673 228.842 680.279 227.525C679.796 225.901 678.174 224.847 676.596 224.891C675.062 224.935 673.747 225.901 673.177 227.525C672.3 230.071 672.344 232.705 673.133 235.251C673.659 237.007 675.018 237.929 676.728 237.929C678.437 237.929 679.796 237.007 680.279 235.251C680.673 234.066 680.761 232.837 680.98 231.52Z" fill="#606061"/>
<path d="M861.505 231.432C861.505 230.861 861.461 230.247 861.505 229.676C862.031 223.662 866.415 220.413 872.289 221.686C875.182 222.301 877.111 224.013 878.032 226.823C879.04 229.895 879.04 233.012 878.032 236.085C876.936 239.465 874.262 241.353 870.579 241.441C866.415 241.572 863.521 239.904 862.294 236.392C861.724 234.856 861.549 233.144 861.198 231.52C861.286 231.476 861.417 231.476 861.505 231.432ZM874.306 231.476C874.086 230.159 873.999 228.754 873.604 227.437C873.122 225.813 871.763 225.023 870.097 224.891C868.651 224.759 867.204 225.725 866.678 227.13C865.67 229.895 865.626 232.705 866.59 235.471C867.16 237.095 868.519 237.929 870.141 237.885C871.763 237.885 873.078 237.007 873.604 235.339C873.955 234.154 874.086 232.837 874.306 231.476Z" fill="#606061"/>
<path d="M898.679 231.388C898.723 230.817 898.723 230.203 898.767 229.632C899.337 223.618 903.721 220.413 909.595 221.686C912.313 222.257 914.198 223.837 915.163 226.427C916.39 229.676 916.346 233.012 915.206 236.305C914.023 239.641 911.349 241.397 907.579 241.441C903.633 241.485 900.828 239.86 899.6 236.524C898.986 234.9 898.811 233.144 898.416 231.432C898.548 231.432 898.592 231.432 898.679 231.388ZM911.568 231.52C911.349 230.247 911.261 228.842 910.866 227.525C910.384 225.901 908.762 224.847 907.228 224.891C905.694 224.935 904.378 225.901 903.808 227.525C902.932 230.071 902.976 232.705 903.765 235.251C904.291 237.007 905.65 237.929 907.359 237.929C909.069 237.929 910.428 237.007 910.91 235.251C911.261 234.11 911.349 232.837 911.568 231.52Z" fill="#606061"/>
<path d="M473.495 220.501C474.985 220.501 476.256 220.501 477.703 220.501C477.703 227.437 477.703 234.329 477.703 241.309C476.388 241.309 475.117 241.309 473.67 241.309C473.582 240.826 473.495 240.299 473.407 239.773C469.374 242.143 465.867 241.924 463.456 239.202C461.088 236.524 460.957 231.476 463.193 228.578C465.341 225.769 468.804 225.462 473.582 227.788C473.582 226.471 473.582 225.286 473.582 224.057C473.495 222.872 473.495 221.73 473.495 220.501ZM473.495 233.671C473.495 231.256 471.829 229.5 469.637 229.544C467.401 229.588 465.867 231.344 465.911 233.802C465.954 236.217 467.533 237.973 469.768 237.929C471.96 237.885 473.538 236.129 473.495 233.671Z" fill="#606061"/>
<path d="M359.253 223.706C358.683 224.979 358.201 226.12 357.674 227.349C356.447 226.866 355.351 226.296 354.211 225.988C353.115 225.681 351.932 225.462 350.792 225.55C350.134 225.593 349.214 226.296 349.082 226.823C348.951 227.349 349.608 228.271 350.134 228.666C350.792 229.149 351.712 229.325 352.545 229.632C353.729 230.027 354.913 230.378 356.052 230.861C358.464 231.915 359.516 233.539 359.428 235.953C359.34 238.412 357.937 240.036 355.746 240.914C352.545 242.187 349.301 241.836 346.189 240.563C345.137 240.124 344.172 239.509 342.989 238.851C343.602 237.578 344.128 236.48 344.611 235.427C346.277 236.217 347.767 237.095 349.389 237.622C350.441 237.973 351.712 238.061 352.808 237.885C353.51 237.753 354.474 236.963 354.562 236.348C354.65 235.734 353.948 234.812 353.334 234.329C352.765 233.846 351.888 233.715 351.099 233.451C349.871 233.012 348.6 232.661 347.373 232.178C345.4 231.344 344.216 229.895 344.128 227.657C344.041 225.374 344.961 223.618 346.978 222.608C348.337 221.95 349.871 221.511 351.362 221.423C354.08 221.291 356.666 222.082 359.253 223.706Z" fill="#606061"/>
<path d="M836.079 238.851C836.78 237.49 837.262 236.436 837.788 235.471C839.41 236.261 840.945 237.095 842.523 237.665C843.575 238.017 844.846 238.104 845.942 237.929C846.644 237.797 847.608 237.007 847.696 236.392C847.784 235.778 847.082 234.856 846.468 234.373C845.899 233.89 845.022 233.759 844.233 233.495C843.005 233.056 841.734 232.705 840.506 232.222C838.534 231.388 837.35 229.939 837.262 227.701C837.175 225.418 838.095 223.662 840.112 222.652C841.471 221.994 843.005 221.599 844.496 221.467C847.258 221.247 849.8 222.125 852.343 223.662C851.817 224.891 851.334 226.076 850.808 227.349C849.581 226.823 848.485 226.296 847.301 225.988C846.205 225.681 845.022 225.462 843.882 225.55C843.224 225.593 842.304 226.296 842.172 226.823C842.041 227.349 842.698 228.271 843.224 228.666C843.882 229.149 844.803 229.325 845.636 229.632C846.819 230.027 848.003 230.378 849.143 230.861C851.554 231.915 852.606 233.539 852.518 235.953C852.43 238.412 851.071 240.036 848.836 240.914C845.636 242.187 842.391 241.836 839.279 240.563C838.315 240.124 837.35 239.509 836.079 238.851Z" fill="#606061"/>
<path d="M302.658 221.774C307.611 221.774 312.39 221.774 317.343 221.774C317.343 222.828 317.343 223.837 317.343 225.111C313.968 225.111 310.549 225.111 306.998 225.111C306.998 226.691 306.998 227.964 306.998 229.544C310.066 229.544 313.179 229.544 316.379 229.544C316.379 230.773 316.379 231.783 316.379 233.056C313.31 233.056 310.198 233.056 307.042 233.056C307.042 234.768 307.042 236.173 307.042 237.885C310.549 237.885 314.056 237.885 317.738 237.885C317.738 239.158 317.738 240.212 317.738 241.353C312.74 241.353 307.787 241.353 302.702 241.353C302.658 234.856 302.658 228.403 302.658 221.774Z" fill="#606061"/>
<path d="M958.343 225.154C958.343 226.779 958.343 228.008 958.343 229.5C961.456 229.5 964.524 229.5 967.768 229.5C967.768 230.729 967.768 231.739 967.768 233.012C964.743 233.012 961.631 233.012 958.431 233.012C958.431 234.768 958.431 236.261 958.431 237.885C961.982 237.885 965.445 237.885 969.083 237.885C969.083 239.114 969.083 240.124 969.083 241.309C964.13 241.309 959.22 241.309 954.091 241.309C954.091 234.9 954.091 228.447 954.091 221.862C958.869 221.862 963.735 221.862 968.733 221.862C968.733 222.872 968.733 223.925 968.733 225.198C965.313 225.154 961.938 225.154 958.343 225.154Z" fill="#606061"/>
<path d="M921.563 230.642C919.634 229.105 918.494 227.437 919.283 225.023C919.985 222.828 922.484 221.423 925.684 221.423C929.059 221.423 931.646 222.828 932.391 225.023C933.048 227.086 932.522 228.579 930.374 230.642C930.506 230.773 930.637 230.949 930.813 231.037C932.829 232.31 934.013 234.066 933.618 236.524C933.224 238.982 931.514 240.255 929.278 240.958C926.911 241.66 924.5 241.66 922.177 240.87C920.116 240.212 918.538 238.895 918.144 236.656C917.749 234.329 918.757 232.529 920.686 231.256C920.905 231.125 921.125 230.949 921.563 230.642ZM925.771 238.104C926.648 237.841 927.525 237.709 928.27 237.314C929.892 236.436 929.936 234.11 928.314 233.232C926.692 232.31 924.938 232.31 923.316 233.232C921.826 234.11 921.782 236.305 923.273 237.226C924.018 237.665 924.895 237.797 925.771 238.104ZM925.903 229.149C927.788 229.105 928.972 228.14 928.928 226.735C928.884 225.374 927.569 224.408 925.771 224.452C923.93 224.496 922.747 225.462 922.79 226.91C922.79 228.271 924.062 229.193 925.903 229.149Z" fill="#606061"/>
<path d="M368.371 221.774C369.993 221.774 371.44 221.774 373.018 221.774C375.78 228.271 378.541 234.724 381.391 241.353C379.725 241.353 378.278 241.353 376.744 241.353C376.218 240.124 375.648 238.851 375.078 237.578C372.097 237.578 369.116 237.578 365.96 237.578C365.434 238.807 364.908 240.08 364.382 241.353C362.935 241.353 361.532 241.353 359.866 241.353C362.76 234.768 365.521 228.315 368.371 221.774ZM370.563 226.252C369.423 229.105 368.502 231.388 367.538 233.802C369.73 233.802 371.571 233.802 373.631 233.802C372.623 231.3 371.703 229.017 370.563 226.252Z" fill="#606061"/>
<path d="M568.579 235.734C568.579 237.753 568.579 239.465 568.579 241.309C567.133 241.309 565.861 241.309 564.371 241.309C564.371 234.9 564.371 228.447 564.371 221.95C568.009 221.95 571.692 221.599 575.33 222.038C579.1 222.521 580.81 225.593 580.372 229.72C580.021 233.188 577.303 235.514 573.401 235.69C571.911 235.778 570.42 235.734 568.579 235.734ZM568.711 225.242C568.711 227.613 568.711 229.808 568.711 232.178C570.333 232.178 571.823 232.31 573.314 232.134C575.286 231.871 576.426 230.378 576.338 228.491C576.251 226.735 575.067 225.462 573.095 225.286C571.692 225.111 570.245 225.242 568.711 225.242Z" fill="#606061"/>
<path d="M395.024 235.734C395.024 237.709 395.024 239.421 395.024 241.309C393.534 241.309 392.175 241.309 390.728 241.309C390.728 234.856 390.728 228.403 390.728 221.818C394.148 221.818 397.479 221.599 400.811 221.862C404.976 222.213 407.036 224.935 406.817 229.237C406.641 232.968 403.967 235.514 399.934 235.734C398.4 235.778 396.866 235.734 395.024 235.734ZM395.112 232.222C396.34 232.222 397.523 232.222 398.663 232.222C399.101 232.222 399.54 232.178 399.934 232.09C401.775 231.651 402.828 230.291 402.74 228.447C402.652 226.779 401.556 225.462 399.715 225.286C398.225 225.154 396.69 225.242 395.112 225.242C395.112 227.613 395.112 229.808 395.112 232.222Z" fill="#606061"/>
<path d="M689.704 232.222C689.704 228.842 689.704 225.418 689.704 221.862C693.912 221.862 698.164 221.862 702.504 221.862C702.504 222.872 702.504 223.881 702.504 225.111C699.699 225.111 696.893 225.111 693.912 225.111C693.912 226.384 693.912 227.437 693.912 228.622C694.526 228.666 695.183 228.71 695.797 228.71C696.236 228.71 696.674 228.71 697.112 228.71C700.663 229.017 703.25 231.3 703.469 234.241C703.688 237.578 701.584 240.299 697.989 241.133C694.482 241.924 691.238 241.002 687.994 239.114C688.52 238.017 689.002 237.007 689.485 236.041C691.019 236.612 692.334 237.183 693.693 237.665C694.219 237.841 694.833 237.929 695.403 237.885C697.288 237.753 698.69 236.524 698.734 235.032C698.734 233.583 697.595 232.398 695.622 232.266C693.737 232.134 691.764 232.222 689.704 232.222Z" fill="#606061"/>
<path d="M763.352 224.979C762.606 225.901 761.817 226.823 760.984 227.876C759.231 226.34 757.39 225.067 755.066 225.549C753.795 225.813 752.392 226.427 751.428 227.349C749.192 229.456 749.148 233.144 751.121 235.558C753.357 238.324 756.25 238.368 761.072 235.69C761.817 236.48 762.606 237.314 763.395 238.148C759.055 243.021 752.041 242.582 748.227 238.938C744.151 234.988 744.107 228.315 748.227 224.408C752.655 220.106 760.064 220.765 763.352 224.979Z" fill="#606061"/>
<path d="M812.494 224.891C811.661 225.901 810.872 226.823 810.127 227.788C806.006 224.847 802.806 224.715 800.439 227.305C798.334 229.588 798.247 233.144 800.219 235.558C802.499 238.324 805.787 238.368 810.083 235.558C810.872 236.348 811.705 237.183 812.538 238.017C808.023 242.977 801.184 242.45 797.458 238.938C793.381 235.119 793.161 228.535 797.063 224.584C801.008 220.501 808.198 220.282 812.494 224.891Z" fill="#606061"/>
<path d="M937.301 227.569C936.731 226.471 936.205 225.418 935.591 224.189C938.791 222.125 942.035 220.765 945.893 221.686C949.926 222.652 951.548 226.296 949.181 229.764C947.734 231.915 945.761 233.759 944.008 235.69C943.438 236.305 942.737 236.831 942.079 237.402C942.167 237.578 942.254 237.709 942.298 237.885C945.148 237.885 947.997 237.885 950.934 237.885C950.934 239.114 950.934 240.124 950.934 241.265C946.025 241.265 941.202 241.265 936.293 241.265C935.854 239.641 936.073 238.324 937.388 237.095C939.274 235.295 941.027 233.276 942.824 231.388C943.263 230.905 943.745 230.466 944.139 229.939C945.016 228.798 946.112 227.613 945.235 226.032C944.622 224.891 942.781 224.715 940.808 225.462C940.194 225.681 939.624 226.032 939.054 226.34C938.572 226.691 938.046 227.086 937.301 227.569Z" fill="#606061"/>
<path d="M651.521 225.154C651.521 223.969 651.521 222.96 651.521 221.818C655.905 221.818 660.332 221.818 664.76 221.818C665.242 223.355 664.848 224.496 663.62 225.506C662.217 226.647 660.99 227.964 659.412 229.413C660.42 229.676 661.077 229.808 661.735 230.027C664.278 230.817 665.68 232.398 665.856 234.593C666.031 237.183 664.848 239.334 662.436 240.431C658.272 242.275 654.37 241.397 650.381 239.158C650.951 238.061 651.477 237.139 651.959 236.217C653.537 236.744 655.028 237.358 656.518 237.709C657.395 237.929 658.403 237.797 659.28 237.578C660.639 237.314 661.516 236.48 661.472 234.988C661.472 233.627 660.551 232.749 658.886 232.529C657.877 232.398 656.869 232.442 655.817 232.398C655.379 232.398 654.984 232.31 654.502 232.222C653.669 228.403 657.746 227.744 658.973 225.067C656.518 225.154 654.063 225.154 651.521 225.154Z" fill="#606061"/>
<path d="M546.31 241.441C540.83 241.397 537.498 237.446 538.419 232.09C539.12 227.964 543.504 225.33 548.151 226.252C552.622 227.13 554.989 230.378 554.507 234.944C554.069 238.851 550.781 241.441 546.31 241.441ZM550.211 233.978C550.299 231.52 548.808 229.72 546.66 229.588C544.425 229.456 542.759 231.125 542.671 233.539C542.583 236.041 543.986 237.797 546.222 237.929C548.414 238.061 550.123 236.392 550.211 233.978Z" fill="#606061"/>
<path d="M427.947 241.441C422.467 241.397 419.179 237.446 420.056 232.046C420.757 227.92 425.141 225.286 429.788 226.208C434.26 227.086 436.627 230.334 436.145 234.9C435.706 238.851 432.418 241.441 427.947 241.441ZM431.848 233.846C431.892 231.388 430.358 229.632 428.122 229.588C425.886 229.544 424.308 231.212 424.264 233.671C424.221 236.173 425.711 237.885 427.947 237.929C430.183 237.973 431.805 236.261 431.848 233.846Z" fill="#606061"/>
<path d="M495.94 234.812C492.389 234.812 488.969 234.812 485.55 234.812C486.295 238.148 488.75 238.675 493.309 236.392C493.879 237.007 494.493 237.665 495.107 238.324C493.046 241.397 488.356 242.319 484.805 240.563C481.473 238.895 479.939 234.724 481.298 230.949C482.613 227.218 486.777 225.242 491.03 226.296C494.581 227.174 496.729 230.773 495.94 234.812ZM491.775 232.134C491.643 230.115 490.767 229.237 488.882 229.105C486.909 229.017 485.769 229.939 485.331 232.134C487.523 232.134 489.671 232.134 491.775 232.134Z" fill="#606061"/>
<path d="M893.638 233.451C894.69 233.495 895.392 233.539 896.268 233.627C896.268 234.68 896.268 235.734 896.268 236.963C895.479 237.007 894.734 237.095 893.77 237.139C893.77 238.5 893.77 239.816 893.77 241.265C892.323 241.265 891.052 241.265 889.605 241.265C889.605 239.992 889.605 238.719 889.605 237.183C886.493 237.183 883.555 237.183 880.268 237.183C880.399 235.778 880.224 234.549 880.662 233.583C882.459 229.588 884.476 225.725 886.405 221.818C887.764 221.818 888.991 221.818 890.526 221.818C888.641 225.769 886.887 229.588 885.046 233.495C886.624 233.495 887.983 233.495 889.517 233.495C889.517 232.09 889.517 230.817 889.517 229.369C890.964 229.369 892.235 229.369 893.638 229.369C893.638 230.642 893.638 231.915 893.638 233.451Z" fill="#606061"/>
<path d="M642.402 237.007C639.115 237.007 636.221 237.007 633.24 237.007C632.977 235.383 633.065 234.022 633.766 232.661C635.301 229.764 636.835 226.823 638.106 223.794C638.808 222.125 639.816 221.423 641.57 221.686C642.008 221.774 642.446 221.686 643.323 221.686C641.438 225.681 639.685 229.456 637.799 233.407C639.334 233.407 640.649 233.407 642.227 233.407C642.227 232.046 642.227 230.729 642.227 229.281C643.674 229.281 644.901 229.281 646.392 229.281C646.392 230.598 646.392 231.959 646.392 233.407C647.4 233.495 648.189 233.583 649.066 233.671C649.066 234.724 649.066 235.69 649.066 236.831C648.321 236.919 647.575 237.007 646.567 237.139C646.567 238.456 646.567 239.773 646.567 241.265C645.077 241.265 643.893 241.265 642.402 241.265C642.402 239.992 642.402 238.675 642.402 237.007Z" fill="#606061"/>
<path d="M299.808 221.862C299.808 223.003 299.808 223.969 299.808 225.154C297.923 225.154 296.126 225.154 294.065 225.154C294.065 230.642 294.065 235.91 294.065 241.309C292.443 241.309 291.084 241.309 289.462 241.309C289.462 235.997 289.462 230.686 289.462 225.198C287.358 225.198 285.473 225.198 283.5 225.198C283.5 224.013 283.5 223.003 283.5 221.862C288.893 221.862 294.241 221.862 299.808 221.862Z" fill="#606061"/>
<path d="M448.2 226.164C449.734 226.164 450.962 226.164 452.496 226.164C450.567 231.344 448.682 236.348 446.797 241.353C445.307 241.353 443.904 241.353 442.282 241.353C440.441 236.392 438.556 231.344 436.583 226.164C438.161 226.164 439.52 226.164 441.011 226.164C442.15 229.588 443.246 233.056 444.386 236.48C444.518 236.48 444.649 236.524 444.781 236.524C445.92 233.1 447.06 229.676 448.2 226.164Z" fill="#606061"/>
<path d="M786.98 241.265C786.98 234.768 786.98 228.403 786.98 221.862C788.383 221.862 789.698 221.862 791.145 221.862C791.145 228.315 791.145 234.68 791.145 241.265C789.874 241.265 788.558 241.265 786.98 241.265Z" fill="#606061"/>
<path d="M499.447 226.164C500.849 226.164 502.077 226.164 503.436 226.164C503.524 226.823 503.655 227.437 503.743 227.964C505.146 227.262 506.592 226.559 508.39 225.681C508.39 227.349 508.39 228.535 508.39 229.852C507.864 229.939 507.25 230.027 506.636 230.203C504.663 230.73 503.699 231.915 503.655 233.978C503.611 236.392 503.655 238.763 503.655 241.309C502.208 241.309 500.937 241.309 499.49 241.309C499.447 236.305 499.447 231.344 499.447 226.164Z" fill="#606061"/>
<path d="M413.743 241.309C412.165 241.309 410.894 241.309 409.491 241.309C409.491 236.261 409.491 231.344 409.491 226.208C410.762 226.208 412.034 226.208 413.524 226.208C413.612 226.691 413.743 227.305 413.831 227.92C415.278 227.218 416.768 226.515 418.522 225.681C418.522 227.349 418.522 228.491 418.522 229.808C418.127 229.895 417.645 229.939 417.206 230.027C414.795 230.554 413.743 231.783 413.743 234.329C413.743 236.568 413.743 238.851 413.743 241.309Z" fill="#606061"/>
<path d="M458.721 241.353C457.318 241.353 456.091 241.353 454.557 241.353C454.557 238.807 454.557 236.261 454.557 233.758C454.557 231.3 454.557 228.798 454.557 226.208C456.003 226.208 457.274 226.208 458.721 226.208C458.721 231.168 458.721 236.173 458.721 241.353Z" fill="#606061"/>
<path d="M458.984 221.906C458.984 223.311 458.064 224.276 456.705 224.276C455.389 224.276 454.337 223.267 454.293 221.95C454.25 220.545 455.389 219.448 456.748 219.492C458.107 219.535 458.984 220.501 458.984 221.906Z" fill="#606061"/>
<path d="M856.814 228.886C857.998 228.886 859.05 229.939 859.05 231.125C859.05 232.31 857.954 233.363 856.77 233.32C855.674 233.276 854.71 232.31 854.666 231.212C854.622 229.983 855.587 228.93 856.814 228.886Z" fill="#606061"/>
<path d="M856.77 241.66C855.587 241.616 854.579 240.519 854.666 239.334C854.71 238.192 855.674 237.27 856.814 237.226C857.998 237.183 859.05 238.236 859.05 239.421C859.006 240.651 857.91 241.704 856.77 241.66Z" fill="#606061"/>
<path d="M729.158 221.423H726.396V241.441H729.158V221.423Z" fill="#B7B7B7"/>
</svg>
